<?xml version="1.0" encoding="utf-8"?>
<svg viewBox="0 0 150 150" xmlns="http://www.w3.org/2000/svg">
  <g transform="matrix(6.25, 0, 0, 6.25, 0.000006, 0.000006)">
    <ellipse cx="12" cy="12" rx="12" ry="12" style="stroke: rgb(181, 197, 130); stroke-width: 0;"/>
    <path d="M 8.488 3.193 C 7.991 3.542 8.165 4.55 8.488 5.066 C 8.774 5.522 9.332 5.12 9.748 5.462 C 10.4 5.997 10.703 6.885 10.937 7.695 C 11.164 8.482 11.388 9.205 11.081 9.965 C 9.826 13.07 7.827 16.061 6.687 19.33 C 6.5 19.868 9.676 19.642 9.712 19.547 C 10.4 17.751 12.558 12.883 12.558 12.883 C 12.558 12.883 13.942 17.778 14.792 19.367 C 14.988 19.733 17.953 19.855 18.07 19.438 C 18.161 19.111 17.872 18.942 17.699 18.807 C 17.488 18.643 17.121 18.619 16.917 18.43 C 14.375 16.071 13.094 6.623 10.828 3.625 C 10.247 2.855 9.278 2.638 8.488 3.193 Z" style="stroke: rgb(181, 197, 130); stroke-width: 0; fill: rgb(255, 255, 255);"/>
  </g>
  <path d="M 11.365 4.497 Z" style="fill: none; stroke: rgb(181, 197, 130); stroke-width: 0;"/>
</svg>